# xmcd
#
# Track frame offsets:
#	150
#	29442
#	61127
#	88545
#	113355
#	137567
#	161535
#	191095
#	215055
#	237290
#	265772
#	298487
#
# Disc length: 4267 seconds
#
# Revision: 5
# Processed by: cddbd v1.5.2PL0 Copyright (c) Steve Scherf et al.
# Submitted via: audiograbber 1.83.01
#
DISCID=ac10a90c
DTITLE=V/A - Energia 97 FM - Flash Back House
DYEAR=2001
DGENRE=House
TTITLE0=Information Society - Running
TTITLE1=Jamiroquai - Space Cowboy
TTITLE2=Masterboy - Everybody Needs Somebody
TTITLE3=2XL - Disciples Of The Beat
TTITLE4=DNA Featuring Suzanne Vega - Tom´s Diners
TTITLE5=C.O.R.O. - Because The Night
TTITLE6=Culture Beat - Mr. Vain
TTITLE7=Bizarre Inc. Feat. Angie Brown - I´m Gonna Get You
TTITLE8=Magic Marmelade - Everybody Get Up
TTITLE9=Pig Boy - Let´s Jam The House
TTITLE10=Bizz Nizz - Don´t Miss The Partyline
TTITLE11=Cool 'N' Cat - I Can´t Believe
EXTD=YEAR: 2001\n\nRiped By Dayvison DJ - Recife - PE\nDayvison DJ Is Dayvison
EXTD=de Azevedo\nWhatsapp: (81) 9-8690-4073
EXTT0=
EXTT1=
EXTT2=
EXTT3=
EXTT4=
EXTT5=
EXTT6=
EXTT7=
EXTT8=
EXTT9=
EXTT10=
EXTT11=
PLAYORDER=
